<svg width="26" height="26" fill="none" xmlns="http://www.w3.org/2000/svg"><path d="M8.367 11.41c.58 0 1.05-.466 1.05-1.041V6.306c0-1.816 1.491-3.294 3.323-3.294 1.832 0 3.324 1.478 3.324 3.294v4.063c0 .575.47 1.042 1.05 1.042.58 0 1.051-.467 1.051-1.042V6.306c0-2.965-2.433-5.377-5.425-5.377-2.99 0-5.424 2.412-5.424 5.377v4.063c0 .575.47 1.042 1.05 1.042z" fill="#F06066"/><path d="M24.795 9.07h-5.578v1.299a2.095 2.095 0 01-2.102 2.083 2.095 2.095 0 01-2.102-2.083V9.07H10.47v1.299a2.095 2.095 0 01-2.102 2.083 2.095 2.095 0 01-2.102-2.083V9.07H.625c-.29 0-.47.227-.4.506L3.9 24.418c.222.834 1.108 1.51 1.978 1.51H19.54c.872 0 1.756-.676 1.98-1.51l3.675-14.842c.069-.28-.11-.506-.4-.506z" fill="#F06066"/></svg>