<svg width="64" height="36" fill="none" xmlns="http://www.w3.org/2000/svg"><path d="M42 19.2a6 6 0 01-3.32-1.02l-9.78-6.52a2 2 0 012.2-3.32l9.8 6.52a2 2 0 002.2 0l9.8-6.52a2 2 0 012.2 3.32l-9.78 6.52A6 6 0 0142 19.2z" fill="#FFC788"/><path d="M42 19.2a6 6 0 01-3.32-1.02l-9.78-6.52a2 2 0 012.2-3.32l9.8 6.52a2 2 0 002.2 0l9.8-6.52a2 2 0 012.2 3.32l-9.78 6.52A6 6 0 0142 19.2z" fill="url(#paint0_linear_34_77)"/><path d="M58 36H26a6 6 0 01-6-6V6a6 6 0 016-6h32a6 6 0 016 6v24a6 6 0 01-6 6zM26 4a2 2 0 00-2 2v24a2 2 0 002 2h32a2 2 0 002-2V6a2 2 0 00-2-2H26z" fill="#FFC788"/><path d="M58 36H26a6 6 0 01-6-6V6a6 6 0 016-6h32a6 6 0 016 6v24a6 6 0 01-6 6zM26 4a2 2 0 00-2 2v24a2 2 0 002 2h32a2 2 0 002-2V6a2 2 0 00-2-2H26z" fill="url(#paint1_linear_34_77)"/><path d="M14 24h-4a2 2 0 110-4h4a2 2 0 010 4z" fill="#FFC788"/><path d="M14 24h-4a2 2 0 110-4h4a2 2 0 010 4z" fill="url(#paint2_linear_34_77)"/><path d="M14 16H6a2 2 0 110-4h8a2 2 0 010 4z" fill="#FFC788"/><path d="M14 16H6a2 2 0 110-4h8a2 2 0 010 4z" fill="url(#paint3_linear_34_77)"/><path d="M14 8H2a2 2 0 110-4h12a2 2 0 010 4z" fill="#FFC788"/><path d="M14 8H2a2 2 0 110-4h12a2 2 0 010 4z" fill="url(#paint4_linear_34_77)"/><defs><linearGradient id="paint0_linear_34_77" x1="51.187" y1="8.121" x2="51.187" y2="19.2" gradientUnits="userSpaceOnUse"><stop stop-color="#FFC788"/><stop offset=".505" stop-color="#FFC940"/><stop offset=".974" stop-color="#FA8059"/></linearGradient><linearGradient id="paint1_linear_34_77" x1="56.597" y1=".059" x2="56.597" y2="36" gradientUnits="userSpaceOnUse"><stop stop-color="#FFC788"/><stop offset=".505" stop-color="#FFC940"/><stop offset=".974" stop-color="#FA8059"/></linearGradient><linearGradient id="paint2_linear_34_77" x1="14.654" y1="20.007" x2="14.654" y2="24" gradientUnits="userSpaceOnUse"><stop stop-color="#FFC788"/><stop offset=".505" stop-color="#FFC940"/><stop offset=".974" stop-color="#FA8059"/></linearGradient><linearGradient id="paint3_linear_34_77" x1="13.981" y1="12.007" x2="13.981" y2="16" gradientUnits="userSpaceOnUse"><stop stop-color="#FFC788"/><stop offset=".505" stop-color="#FFC940"/><stop offset=".974" stop-color="#FA8059"/></linearGradient><linearGradient id="paint4_linear_34_77" x1="13.308" y1="4.007" x2="13.308" y2="8" gradientUnits="userSpaceOnUse"><stop stop-color="#FFC788"/><stop offset=".505" stop-color="#FFC940"/><stop offset=".974" stop-color="#FA8059"/></linearGradient></defs></svg>