<svg width="53" height="60" fill="none" xmlns="http://www.w3.org/2000/svg"><path d="M43.79 14.56H33.687V4.805a4.21 4.21 0 00-4.21-4.21H4.21A4.21 4.21 0 000 4.805V55.35a4.21 4.21 0 004.21 4.21h25.266a4.21 4.21 0 004.21-4.21v-8.083H45.41v-1.545H33.686v-1.795h7.623v-1.545h-7.623v-2.681H43.79a2.96 2.96 0 002.956-2.956v-19.23a2.96 2.96 0 00-2.956-2.956zm-24 42.398h-5.893v-1.545h5.892v1.546zm11.934-5.188a1.288 1.288 0 01-1.288 1.287H3.25a1.287 1.287 0 01-1.288-1.287V8.386A1.288 1.288 0 013.25 7.098h27.186a1.288 1.288 0 011.288 1.288v6.174h-16.23V12.3H13.82v30.083h1.674v-2.681h16.23V51.77zm13.478-15.024a1.412 1.412 0 01-1.411 1.41H15.494v-22.05H43.79a1.413 1.413 0 011.41 1.41v19.23z" fill="#000"/><path d="M43.79 14.56H33.687V4.805a4.21 4.21 0 00-4.21-4.21H4.21A4.21 4.21 0 000 4.805V55.35a4.21 4.21 0 004.21 4.21h25.266a4.21 4.21 0 004.21-4.21v-8.083H45.41v-1.545H33.686v-1.795h7.623v-1.545h-7.623v-2.681H43.79a2.96 2.96 0 002.956-2.956v-19.23a2.96 2.96 0 00-2.956-2.956zm-24 42.398h-5.893v-1.545h5.892v1.546zm11.934-5.188a1.288 1.288 0 01-1.288 1.287H3.25a1.287 1.287 0 01-1.288-1.287V8.386A1.288 1.288 0 013.25 7.098h27.186a1.288 1.288 0 011.288 1.288v6.174h-16.23V12.3H13.82v30.083h1.674v-2.681h16.23V51.77zm13.478-15.024a1.412 1.412 0 01-1.411 1.41H15.494v-22.05H43.79a1.413 1.413 0 011.41 1.41v19.23z" fill="url(#paint0_linear_34_110)"/><path d="M39.516 18.903c-.643 0-1.265.236-1.746.663a3.653 3.653 0 010 3.937 2.63 2.63 0 101.746-4.6z" fill="#000"/><path d="M39.516 18.903c-.643 0-1.265.236-1.746.663a3.653 3.653 0 010 3.937 2.63 2.63 0 101.746-4.6z" fill="url(#paint1_linear_34_110)"/><path d="M34.684 24.165a2.63 2.63 0 100-5.262 2.63 2.63 0 000 5.262z" fill="#000"/><path d="M34.684 24.165a2.63 2.63 0 100-5.262 2.63 2.63 0 000 5.262z" fill="url(#paint2_linear_34_110)"/><path d="M23.294 33.92h-6.15v1.545h6.15v-1.546z" fill="#000"/><path d="M23.294 33.92h-6.15v1.545h6.15v-1.546z" fill="url(#paint3_linear_34_110)"/><path d="M41.878 33.92H27.491v1.545h14.387v-1.546z" fill="#000"/><path d="M41.878 33.92H27.491v1.545h14.387v-1.546z" fill="url(#paint4_linear_34_110)"/><path d="M41.878 30.143H17.145v1.545h24.733v-1.545z" fill="#000"/><path d="M41.878 30.143H17.145v1.545h24.733v-1.545z" fill="url(#paint5_linear_34_110)"/><path d="M17.89 19.47h2.636a.746.746 0 01.746.746v2.636a.746.746 0 01-.746.746H17.89a.745.745 0 01-.745-.746v-2.636a.745.745 0 01.745-.745z" fill="#000"/><path d="M17.89 19.47h2.636a.746.746 0 01.746.746v2.636a.746.746 0 01-.746.746H17.89a.745.745 0 01-.745-.746v-2.636a.745.745 0 01.745-.745z" fill="url(#paint6_linear_34_110)"/><path d="M53 45.723h-5.368v1.545H53v-1.545z" fill="#000"/><path d="M53 45.723h-5.368v1.545H53v-1.545z" fill="url(#paint7_linear_34_110)"/><defs><linearGradient id="paint0_linear_34_110" x1="38.882" y1=".692" x2="38.882" y2="59.561" gradientUnits="userSpaceOnUse"><stop stop-color="#FFC788"/><stop offset=".505" stop-color="#FFC940"/><stop offset=".974" stop-color="#FA8059"/></linearGradient><linearGradient id="paint1_linear_34_110" x1="41.411" y1="18.912" x2="41.411" y2="24.165" gradientUnits="userSpaceOnUse"><stop stop-color="#FFC788"/><stop offset=".505" stop-color="#FFC940"/><stop offset=".974" stop-color="#FA8059"/></linearGradient><linearGradient id="paint2_linear_34_110" x1="36.43" y1="18.912" x2="36.43" y2="24.165" gradientUnits="userSpaceOnUse"><stop stop-color="#FFC788"/><stop offset=".505" stop-color="#FFC940"/><stop offset=".974" stop-color="#FA8059"/></linearGradient><linearGradient id="paint3_linear_34_110" x1="22.259" y1="33.922" x2="22.259" y2="35.465" gradientUnits="userSpaceOnUse"><stop stop-color="#FFC788"/><stop offset=".505" stop-color="#FFC940"/><stop offset=".974" stop-color="#FA8059"/></linearGradient><linearGradient id="paint4_linear_34_110" x1="39.458" y1="33.922" x2="39.458" y2="35.465" gradientUnits="userSpaceOnUse"><stop stop-color="#FFC788"/><stop offset=".505" stop-color="#FFC940"/><stop offset=".974" stop-color="#FA8059"/></linearGradient><linearGradient id="paint5_linear_34_110" x1="37.717" y1="30.145" x2="37.717" y2="31.688" gradientUnits="userSpaceOnUse"><stop stop-color="#FFC788"/><stop offset=".505" stop-color="#FFC940"/><stop offset=".974" stop-color="#FA8059"/></linearGradient><linearGradient id="paint6_linear_34_110" x1="20.577" y1="19.477" x2="20.577" y2="23.598" gradientUnits="userSpaceOnUse"><stop stop-color="#FFC788"/><stop offset=".505" stop-color="#FFC940"/><stop offset=".974" stop-color="#FA8059"/></linearGradient><linearGradient id="paint7_linear_34_110" x1="52.097" y1="45.726" x2="52.097" y2="47.268" gradientUnits="userSpaceOnUse"><stop stop-color="#FFC788"/><stop offset=".505" stop-color="#FFC940"/><stop offset=".974" stop-color="#FA8059"/></linearGradient></defs></svg>