<svg width="31" height="30" fill="none" xmlns="http://www.w3.org/2000/svg"><path d="M17.092.902l3.382 7.359c.147.441.588.736 1.029.883l7.646 1.177c1.324 0 1.765 1.472.883 2.355l-5.588 5.74c-.294.294-.441.883-.441 1.324l1.323 7.948c.147 1.177-1.03 2.207-2.059 1.619l-6.91-3.827c-.442-.294-.883-.294-1.324 0l-6.911 3.826c-1.03.59-2.353-.294-2.059-1.618l1.324-7.948c.147-.441-.147-1.03-.442-1.324l-5.587-5.74c-.736-.883-.294-2.355.882-2.502l7.646-1.177c.442 0 .883-.442 1.03-.883L14.298.755c.735-1.03 2.205-1.03 2.794.147z" fill="#FFD516"/></svg>