<svg width="94" height="84" fill="none" xmlns="http://www.w3.org/2000/svg"><path d="M79.263 4.185l.545-.817.536-.807L81.551.752a.484.484 0 10-.805-.536l-2.388 3.582a15.926 15.926 0 00-5.755-1.058c-2.057 0-4.005.38-5.753 1.058l-.55-.827L64.464.216a.485.485 0 00-.805.535l2.289 3.433c-4.106 1.911-6.883 5.533-6.883 9.679h27.081c0-4.145-2.776-7.767-6.882-9.678zm-12.461 5.81a1.45 1.45 0 11-.003-2.901 1.45 1.45 0 01.003 2.9zm11.605 0a1.45 1.45 0 110-2.9 1.45 1.45 0 010 2.9z" fill="url(#paint0_linear_742_3)"/><path d="M59.064 15.799v21.279a3.066 3.066 0 003.062 3.063h2.211a2.895 2.895 0 00-.115.805v6.127a2.903 2.903 0 005.803 0v-6.127c0-.278-.042-.55-.114-.805h5.388a2.894 2.894 0 00-.115.805v6.127a2.903 2.903 0 005.803 0v-6.127a2.9 2.9 0 00-.115-.805h2.21a3.066 3.066 0 003.063-3.063v-21.28h-27.08z" fill="url(#paint1_linear_742_3)"/><path d="M54.227 15.799a2.901 2.901 0 00-2.901 2.902v12.411a2.902 2.902 0 005.803 0V18.7a2.9 2.9 0 00-2.902-2.901z" fill="url(#paint2_linear_742_3)"/><path d="M90.982 15.799a2.9 2.9 0 00-2.901 2.902v12.411a2.901 2.901 0 005.8 0V18.7a2.9 2.9 0 00-2.899-2.901z" fill="url(#paint3_linear_742_3)"/><path d="M21.199 55.058c-2.152 0-3.987.443-5.759 1.33-4.62 2.277-7.277 7.15-7.277 13.225 0 6.075 2.595 10.82 7.214 12.972 1.266.57 2.531.886 4.43 1.14.949.063 1.835.126 2.784 0 1.898-.254 3.164-.57 4.43-1.14 4.619-2.214 7.213-6.897 7.213-12.972 0-6.075-2.657-10.948-7.277-13.226-1.835-.886-3.67-1.329-5.758-1.329zm1.835 4.303c2.784.76 4.746 3.228 5.569 6.898.57 2.531.38 5.505-.38 7.847-1.202 3.607-3.797 5.695-7.024 5.632-3.164.063-5.822-2.025-7.024-5.632-.76-2.342-.95-5.252-.38-7.847.76-3.67 2.784-6.138 5.569-6.898a8.965 8.965 0 013.67 0z" fill="url(#paint4_linear_742_3)"/><path d="M2.784 55.058C1.266 55.058 0 56.324 0 57.843c0 1.518 1.266 2.784 2.784 2.784 1.519 0 2.785-1.266 2.785-2.784 0-1.519-1.266-2.785-2.785-2.785zM.19 63.475v20.313h5.189V63.475H.189z" fill="url(#paint5_linear_742_3)"/><path d="M41.702 83.788c-2.215-.38-4.367-.697-6.139-1.709 0 0 1.076-4.113 1.14-4.176 2.91 1.012 7.024 2.34 9.745 1.075 1.518-.759 2.214-2.151 2.025-3.733-.254-1.835-1.52-2.848-4.936-4.113-3.797-1.456-6.075-3.164-6.961-5.443-.443-1.138-.57-2.53-.38-3.796.57-3.48 3.29-5.885 7.404-6.645 1.202-.19 3.797-.19 5.062 0 1.836.317 3.924 1.013 3.924 1.266 0 .126-1.076 3.86-1.14 3.986-1.834-.696-3.796-1.202-5.568-1.265-2.405-.063-5.062 1.392-4.62 3.923.317 1.582 1.33 2.342 5.063 3.86 2.784 1.14 4.05 1.899 5.189 3.038 1.582 1.582 2.088 3.417 2.088 5.252 0 1.519-.126 2.215-.696 3.417-1.329 2.848-3.986 4.493-8.036 4.936-.76.127-2.532.19-3.164.127z" fill="url(#paint6_linear_742_3)"/><defs><linearGradient id="paint0_linear_742_3" x1="72.604" y1="0" x2="72.604" y2="49.975" gradientUnits="userSpaceOnUse"><stop stop-color="#FFC794"/><stop offset=".521" stop-color="#FFC93A"/><stop offset="1" stop-color="#FA7A5C"/></linearGradient><linearGradient id="paint1_linear_742_3" x1="72.604" y1="0" x2="72.604" y2="49.975" gradientUnits="userSpaceOnUse"><stop stop-color="#FFC794"/><stop offset=".521" stop-color="#FFC93A"/><stop offset="1" stop-color="#FA7A5C"/></linearGradient><linearGradient id="paint2_linear_742_3" x1="72.604" y1="0" x2="72.604" y2="49.975" gradientUnits="userSpaceOnUse"><stop stop-color="#FFC794"/><stop offset=".521" stop-color="#FFC93A"/><stop offset="1" stop-color="#FA7A5C"/></linearGradient><linearGradient id="paint3_linear_742_3" x1="72.604" y1="0" x2="72.604" y2="49.975" gradientUnits="userSpaceOnUse"><stop stop-color="#FFC794"/><stop offset=".521" stop-color="#FFC93A"/><stop offset="1" stop-color="#FA7A5C"/></linearGradient><linearGradient id="paint4_linear_742_3" x1="44.581" y1="55.106" x2="44.581" y2="83.812" gradientUnits="userSpaceOnUse"><stop stop-color="#FFC788"/><stop offset=".505" stop-color="#FFC940"/><stop offset=".974" stop-color="#FA8059"/></linearGradient><linearGradient id="paint5_linear_742_3" x1="44.581" y1="55.106" x2="44.581" y2="83.812" gradientUnits="userSpaceOnUse"><stop stop-color="#FFC788"/><stop offset=".505" stop-color="#FFC940"/><stop offset=".974" stop-color="#FA8059"/></linearGradient><linearGradient id="paint6_linear_742_3" x1="44.581" y1="55.106" x2="44.581" y2="83.812" gradientUnits="userSpaceOnUse"><stop stop-color="#FFC788"/><stop offset=".505" stop-color="#FFC940"/><stop offset=".974" stop-color="#FA8059"/></linearGradient></defs></svg>