<svg width="79" height="79" fill="none" xmlns="http://www.w3.org/2000/svg"><path d="M39.5 5.44l16.188-2.23v15.64H39.5V5.44zm0 28.62l16.188 2.232v-15.45H39.5V34.06zm17.968 2.469L79 39.5V20.843H57.468v15.686zm0-33.558v15.88H79V0L57.468 2.971z" fill="#FDB543"/><path d="M39.5 5.44l16.188-2.23v15.64H39.5V5.44zm0 28.62l16.188 2.232v-15.45H39.5V34.06zm17.968 2.469L79 39.5V20.843H57.468v15.686zm0-33.558v15.88H79V0L57.468 2.971z" fill="url(#paint0_linear_742_4)"/><path d="M22.599 42.96c-.708.207-1.708.366-2.986.48.057-2.806.8-5.226 2.242-7.257 1.415-2.018 3.804-3.413 7.173-4.183a2 2 0 01.074.312c.026.15.052.253.073.31 0 .074.005.17.016.282.005.114.01.207.01.284 0 1.149-.278 2.427-.832 3.84-.572 1.412-1.463 2.711-2.668 3.897-1.032 1.015-2.07 1.695-3.102 2.036zm12.863 19.8c-1.32-1.861-1.98-3.965-1.98-6.299 0-2.129.619-4.077 1.865-5.845.67-.964 1.76-2.072 3.275-3.334-.996-1.207-1.99-2.145-2.986-2.825-1.803-1.222-3.841-1.836-6.12-1.836-1.358 0-3.014.32-4.962.96-1.876.644-3.25.96-4.109.96-.65 0-1.97-.28-3.961-.847-2.012-.565-3.704-.846-5.082-.846-3.296 0-6.01 1.355-8.159 4.067C1.08 49.66 0 53.187 0 57.474c0 4.563 1.41 9.295 4.223 14.212C7.073 76.562 9.956 79 12.863 79c.975 0 2.243-.32 3.79-.959 1.55-.623 2.912-.933 4.08-.933 1.243 0 2.689.301 4.334.902 1.74.603 3.081.904 4.02.904 2.452 0 4.908-1.844 7.381-5.535 1.604-2.353 2.783-4.706 3.532-7.059-1.708-.51-3.217-1.696-4.538-3.561z" fill="#000"/><path d="M22.599 42.96c-.708.207-1.708.366-2.986.48.057-2.806.8-5.226 2.242-7.257 1.415-2.018 3.804-3.413 7.173-4.183a2 2 0 01.074.312c.026.15.052.253.073.31 0 .074.005.17.016.282.005.114.01.207.01.284 0 1.149-.278 2.427-.832 3.84-.572 1.412-1.463 2.711-2.668 3.897-1.032 1.015-2.07 1.695-3.102 2.036zm12.863 19.8c-1.32-1.861-1.98-3.965-1.98-6.299 0-2.129.619-4.077 1.865-5.845.67-.964 1.76-2.072 3.275-3.334-.996-1.207-1.99-2.145-2.986-2.825-1.803-1.222-3.841-1.836-6.12-1.836-1.358 0-3.014.32-4.962.96-1.876.644-3.25.96-4.109.96-.65 0-1.97-.28-3.961-.847-2.012-.565-3.704-.846-5.082-.846-3.296 0-6.01 1.355-8.159 4.067C1.08 49.66 0 53.187 0 57.474c0 4.563 1.41 9.295 4.223 14.212C7.073 76.562 9.956 79 12.863 79c.975 0 2.243-.32 3.79-.959 1.55-.623 2.912-.933 4.08-.933 1.243 0 2.689.301 4.334.902 1.74.603 3.081.904 4.02.904 2.452 0 4.908-1.844 7.381-5.535 1.604-2.353 2.783-4.706 3.532-7.059-1.708-.51-3.217-1.696-4.538-3.561z" fill="url(#paint1_linear_742_4)"/><defs><linearGradient id="paint0_linear_742_4" x1="72.355" y1=".065" x2="72.355" y2="39.5" gradientUnits="userSpaceOnUse"><stop stop-color="#FFC788"/><stop offset=".505" stop-color="#FFC940"/><stop offset=".974" stop-color="#FA8059"/></linearGradient><linearGradient id="paint1_linear_742_4" x1="33.27" y1="32.078" x2="33.27" y2="79" gradientUnits="userSpaceOnUse"><stop stop-color="#FFC788"/><stop offset=".505" stop-color="#FFC940"/><stop offset=".974" stop-color="#FA8059"/></linearGradient></defs></svg>