<svg width="60" height="60" fill="none" xmlns="http://www.w3.org/2000/svg"><path d="M30 .25A29.75 29.75 0 00.25 30v19.125a2.125 2.125 0 002.125 2.125h12.75a2.125 2.125 0 002.125-2.125v-17A2.125 2.125 0 0015.125 30H4.5a25.5 25.5 0 0151 0H44.875a2.125 2.125 0 00-2.125 2.125v17a2.125 2.125 0 002.125 2.125H55.5v4.25H32.125v-2.125a2.125 2.125 0 00-4.25 0v4.25A2.125 2.125 0 0030 59.75h27.625a2.125 2.125 0 002.125-2.125V30A29.75 29.75 0 0030 .25z" fill="#000"/><path d="M30 .25A29.75 29.75 0 00.25 30v19.125a2.125 2.125 0 002.125 2.125h12.75a2.125 2.125 0 002.125-2.125v-17A2.125 2.125 0 0015.125 30H4.5a25.5 25.5 0 0151 0H44.875a2.125 2.125 0 00-2.125 2.125v17a2.125 2.125 0 002.125 2.125H55.5v4.25H32.125v-2.125a2.125 2.125 0 00-4.25 0v4.25A2.125 2.125 0 0030 59.75h27.625a2.125 2.125 0 002.125-2.125V30A29.75 29.75 0 0030 .25z" fill="url(#paint0_linear_12_171)"/><defs><linearGradient id="paint0_linear_12_171" x1="49.74" y1=".348" x2="49.74" y2="59.75" gradientUnits="userSpaceOnUse"><stop stop-color="#FFC788"/><stop offset=".505" stop-color="#FFC940"/><stop offset=".974" stop-color="#FA8059"/></linearGradient></defs></svg>